<svg width="1205" height="862" viewBox="0 0 1205 862" fill="none" xmlns="http://www.w3.org/2000/svg">
<path d="M1188.9 563.04L1170.72 563.04L1170.72 556.684C1170.72 555.417 1170.94 554.373 1171.38 553.55C1171.81 552.727 1172.39 552.115 1173.13 551.712C1173.85 551.31 1174.66 551.109 1175.55 551.109C1176.33 551.109 1176.98 551.248 1177.49 551.526C1177.99 551.798 1178.4 552.159 1178.69 552.609C1178.99 553.053 1179.21 553.535 1179.35 554.056L1179.53 554.056C1179.56 553.5 1179.76 552.94 1180.11 552.378C1180.47 551.816 1180.98 551.345 1181.64 550.967C1182.3 550.588 1183.11 550.398 1184.07 550.398C1184.98 550.398 1185.8 550.606 1186.53 551.02C1187.26 551.434 1187.84 552.088 1188.26 552.982C1188.69 553.876 1188.9 555.039 1188.9 556.471L1188.9 563.04ZM1186.95 560.839L1186.95 556.471C1186.95 555.033 1186.67 554.012 1186.11 553.408C1185.55 552.798 1184.87 552.494 1184.07 552.494C1183.46 552.494 1182.89 552.65 1182.37 552.964C1181.84 553.278 1181.42 553.725 1181.11 554.305C1180.79 554.885 1180.63 555.571 1180.63 556.364L1180.63 560.839L1186.95 560.839ZM1178.71 560.839L1178.71 556.755C1178.71 556.092 1178.58 555.494 1178.32 554.962C1178.06 554.423 1177.69 553.997 1177.22 553.683C1176.75 553.364 1176.19 553.204 1175.55 553.204C1174.75 553.204 1174.07 553.482 1173.52 554.038C1172.95 554.595 1172.67 555.477 1172.67 556.684L1172.67 560.839L1178.71 560.839ZM1179.81 531.44C1181.73 531.44 1183.39 531.786 1184.78 532.479C1186.18 533.171 1187.26 534.121 1188.01 535.328C1188.77 536.536 1189.15 537.915 1189.15 539.465C1189.15 541.016 1188.77 542.395 1188.01 543.602C1187.26 544.81 1186.18 545.76 1184.78 546.452C1183.39 547.145 1181.73 547.491 1179.81 547.491C1177.89 547.491 1176.24 547.145 1174.84 546.452C1173.44 545.76 1172.37 544.81 1171.61 543.602C1170.85 542.395 1170.47 541.016 1170.47 539.465C1170.47 537.915 1170.85 536.536 1171.61 535.328C1172.37 534.121 1173.44 533.171 1174.84 532.479C1176.24 531.786 1177.89 531.44 1179.81 531.44ZM1179.81 533.57C1178.24 533.57 1176.91 533.834 1175.83 534.361C1174.74 534.881 1173.92 535.589 1173.37 536.482C1172.81 537.37 1172.53 538.365 1172.53 539.465C1172.53 540.566 1172.81 541.564 1173.37 542.457C1173.92 543.345 1174.74 544.052 1175.83 544.579C1176.91 545.1 1178.24 545.36 1179.81 545.36C1181.39 545.36 1182.71 545.1 1183.8 544.579C1184.88 544.052 1185.7 543.345 1186.26 542.457C1186.81 541.564 1187.09 540.566 1187.09 539.465C1187.09 538.365 1186.81 537.37 1186.26 536.482C1185.7 535.589 1184.88 534.881 1183.8 534.361C1182.71 533.834 1181.39 533.57 1179.81 533.57ZM1188.9 522.127L1188.9 527.738L1170.72 527.738L1170.72 521.878C1170.72 520.115 1171.08 518.605 1171.81 517.351C1172.53 516.096 1173.57 515.134 1174.93 514.465C1176.28 513.797 1177.89 513.462 1179.78 513.462C1181.67 513.462 1183.3 513.8 1184.67 514.474C1186.03 515.149 1187.08 516.131 1187.81 517.422C1188.54 518.712 1188.9 520.28 1188.9 522.127ZM1186.95 525.536L1186.95 522.269C1186.95 520.766 1186.66 519.52 1186.08 518.531C1185.5 517.543 1184.67 516.806 1183.6 516.321C1182.53 515.836 1181.26 515.593 1179.78 515.593C1178.31 515.593 1177.04 515.833 1175.99 516.312C1174.92 516.791 1174.1 517.508 1173.53 518.46C1172.96 519.413 1172.67 520.6 1172.67 522.02L1172.67 525.536L1186.95 525.536ZM1170.72 512.186L1170.72 509.665L1179.21 504.622L1179.21 504.409L1170.72 499.366L1170.72 496.845L1181.41 503.415L1188.9 503.415L1188.9 505.616L1181.41 505.616L1170.72 512.186Z" fill="white"/>
<path d="M0.72168 576.469C401.937 576.469 1204.37 576.468 1204.37 576.468" stroke="white"/>
<rect x="1.22168" y="99.2793" width="471.227" height="675.153" stroke="#FFE500"/>
<rect x="786.766" y="269.908" width="294.833" height="294.833" stroke="#FFE500"/>
<path d="M507.473 772.731L489.291 772.731L489.291 761.829L491.244 761.829L491.244 770.529L497.387 770.529L497.387 762.646L499.341 762.646L499.341 770.529L507.473 770.529L507.473 772.731ZM507.473 759.583L507.473 761.891L489.291 755.215L489.291 752.942L507.473 746.266L507.473 748.574L492.167 754.008L492.167 754.15L507.473 759.583ZM500.37 758.731L500.37 749.427L502.324 749.427L502.324 758.731L500.37 758.731ZM494.973 729.658L494.973 731.86C494.339 731.99 493.783 732.218 493.304 732.543C492.824 732.863 492.422 733.253 492.096 733.715C491.765 734.171 491.516 734.677 491.35 735.233C491.185 735.789 491.102 736.369 491.102 736.973C491.102 738.074 491.38 739.071 491.936 739.965C492.493 740.853 493.312 741.56 494.396 742.087C495.479 742.608 496.807 742.868 498.382 742.868C499.956 742.868 501.285 742.608 502.368 742.087C503.451 741.56 504.271 740.853 504.827 739.965C505.383 739.071 505.662 738.074 505.662 736.973C505.662 736.369 505.579 735.789 505.413 735.233C505.247 734.677 505.002 734.171 504.676 733.715C504.345 733.253 503.939 732.863 503.46 732.543C502.975 732.218 502.418 731.99 501.791 731.86L501.791 729.658C502.72 729.824 503.552 730.125 504.286 730.563C505.019 731.001 505.644 731.546 506.159 732.197C506.668 732.848 507.055 733.579 507.322 734.39C507.588 735.195 507.721 736.056 507.721 736.973C507.721 738.524 507.342 739.903 506.585 741.11C505.827 742.318 504.75 743.268 503.353 743.96C501.957 744.653 500.299 744.999 498.382 744.999C496.464 744.999 494.807 744.653 493.41 743.96C492.013 743.268 490.936 742.318 490.179 741.11C489.421 739.903 489.042 738.524 489.042 736.973C489.042 736.056 489.175 735.195 489.442 734.39C489.708 733.579 490.099 732.848 490.614 732.197C491.123 731.546 491.744 731.001 492.478 730.563C493.206 730.125 494.038 729.824 494.973 729.658ZM507.473 726.1L489.291 726.1L489.291 715.127L491.244 715.127L491.244 723.898L497.387 723.898L497.387 715.695L499.341 715.695L499.341 723.898L505.52 723.898L505.52 714.985L507.473 714.985L507.473 726.1Z" fill="#FFE500"/>
<path d="M773.081 563.04L754.899 563.04L754.899 552.138L756.852 552.138L756.852 560.839L762.996 560.839L762.996 552.955L764.949 552.955L764.949 560.839L773.081 560.839L773.081 563.04ZM773.081 549.892L773.081 552.201L754.899 545.525L754.899 543.252L773.081 536.576L773.081 538.884L757.776 544.317L757.776 544.459L773.081 549.892ZM765.979 549.04L765.979 539.736L767.932 539.736L767.932 549.04L765.979 549.04ZM760.581 519.967L760.581 522.169C759.948 522.299 759.391 522.527 758.912 522.853C758.433 523.172 758.03 523.563 757.705 524.025C757.373 524.48 757.125 524.986 756.959 525.543C756.793 526.099 756.71 526.679 756.71 527.283C756.71 528.384 756.988 529.381 757.545 530.275C758.101 531.162 758.921 531.87 760.004 532.396C761.087 532.917 762.416 533.178 763.99 533.178C765.564 533.178 766.893 532.917 767.976 532.396C769.059 531.87 769.879 531.162 770.435 530.275C770.992 529.381 771.27 528.384 771.27 527.283C771.27 526.679 771.187 526.099 771.021 525.543C770.856 524.986 770.61 524.48 770.285 524.025C769.953 523.563 769.548 523.172 769.068 522.853C768.583 522.527 768.027 522.299 767.399 522.169L767.399 519.967C768.328 520.133 769.16 520.435 769.894 520.873C770.628 521.311 771.252 521.855 771.767 522.506C772.276 523.158 772.664 523.888 772.93 524.699C773.196 525.504 773.33 526.365 773.33 527.283C773.33 528.833 772.951 530.212 772.193 531.42C771.436 532.627 770.359 533.577 768.962 534.27C767.565 534.962 765.908 535.308 763.99 535.308C762.073 535.308 760.415 534.962 759.019 534.27C757.622 533.577 756.545 532.627 755.787 531.42C755.029 530.212 754.651 528.833 754.651 527.283C754.651 526.365 754.784 525.504 755.05 524.699C755.316 523.888 755.707 523.158 756.222 522.506C756.731 521.855 757.352 521.311 758.086 520.873C758.814 520.435 759.646 520.133 760.581 519.967ZM773.081 516.41L754.899 516.41L754.899 505.437L756.852 505.437L756.852 514.208L762.996 514.208L762.996 506.005L764.949 506.005L764.949 514.208L771.128 514.208L771.128 505.295L773.081 505.295L773.081 516.41Z" fill="#FFE500"/>
</svg>
