<svg width="1205" height="862" viewBox="0 0 1205 862" fill="none" xmlns="http://www.w3.org/2000/svg">
<rect x="174.751" y="121.029" width="490.405" height="490.405" stroke="#FFE500"/>
<rect x="547.123" y="385.909" width="355.857" height="355.857" stroke="#FFE500"/>
<path d="M151.455 609.732L133.273 609.732L133.273 598.83L135.226 598.83L135.226 607.531L141.37 607.531L141.37 599.647L143.323 599.647L143.323 607.531L151.455 607.531L151.455 609.732ZM151.455 596.584L151.455 598.893L133.273 592.216L133.273 589.944L151.455 583.268L151.455 585.576L136.15 591.009L136.15 591.151L151.455 596.584ZM144.353 595.732L144.353 586.428L146.306 586.428L146.306 595.732L144.353 595.732ZM138.955 566.659L138.955 568.861C138.322 568.991 137.765 569.219 137.286 569.545C136.807 569.864 136.404 570.255 136.079 570.716C135.747 571.172 135.499 571.678 135.333 572.235C135.167 572.791 135.084 573.371 135.084 573.975C135.084 575.076 135.363 576.073 135.919 576.966C136.475 577.854 137.295 578.562 138.378 579.088C139.461 579.609 140.79 579.87 142.364 579.87C143.939 579.87 145.267 579.609 146.35 579.088C147.433 578.562 148.253 577.854 148.809 576.966C149.366 576.073 149.644 575.076 149.644 573.975C149.644 573.371 149.561 572.791 149.395 572.235C149.23 571.678 148.984 571.172 148.659 570.716C148.327 570.255 147.922 569.864 147.442 569.545C146.957 569.219 146.401 568.991 145.773 568.861L145.773 566.659C146.702 566.825 147.534 567.127 148.268 567.565C149.002 568.003 149.626 568.547 150.141 569.198C150.65 569.849 151.038 570.58 151.304 571.391C151.57 572.196 151.704 573.057 151.704 573.975C151.704 575.525 151.325 576.904 150.567 578.112C149.81 579.319 148.733 580.269 147.336 580.962C145.939 581.654 144.282 582 142.364 582C140.447 582 138.789 581.654 137.393 580.962C135.996 580.269 134.919 579.319 134.161 578.112C133.403 576.904 133.025 575.525 133.025 573.975C133.025 573.057 133.158 572.196 133.424 571.391C133.691 570.58 134.081 569.849 134.596 569.198C135.105 568.547 135.727 568.003 136.46 567.565C137.188 567.127 138.02 566.825 138.955 566.659ZM151.455 563.102L133.273 563.102L133.273 552.129L135.226 552.129L135.226 560.9L141.37 560.9L141.37 552.697L143.323 552.697L143.323 560.9L149.502 560.9L149.502 551.986L151.455 551.986L151.455 563.102Z" fill="#FFE500"/>
<path d="M939.317 740.065L921.136 740.065L921.136 733.921C921.136 732.495 921.393 731.329 921.908 730.423C922.417 729.512 923.106 728.837 923.976 728.399C924.847 727.961 925.817 727.742 926.888 727.742C927.96 727.742 928.933 727.961 929.809 728.399C930.685 728.831 931.384 729.5 931.904 730.406C932.419 731.311 932.677 732.471 932.677 733.886L932.677 738.289L930.724 738.289L930.724 733.957C930.724 732.98 930.555 732.196 930.218 731.604C929.88 731.012 929.425 730.583 928.85 730.317C928.27 730.045 927.616 729.908 926.888 729.908C926.16 729.908 925.509 730.045 924.935 730.317C924.361 730.583 923.911 731.015 923.586 731.613C923.254 732.211 923.089 733.004 923.089 733.992L923.089 737.863L939.317 737.863L939.317 740.065ZM939.317 724.196L921.136 724.196L921.136 721.994L929.232 721.994L929.232 712.299L921.136 712.299L921.136 710.097L939.317 710.097L939.317 712.299L931.185 712.299L931.185 721.994L939.317 721.994L939.317 724.196ZM930.226 690.349C932.144 690.349 933.801 690.695 935.198 691.387C936.595 692.08 937.672 693.03 938.43 694.237C939.187 695.445 939.566 696.824 939.566 698.374C939.566 699.925 939.187 701.304 938.43 702.511C937.672 703.719 936.595 704.669 935.198 705.361C933.801 706.054 932.144 706.4 930.226 706.4C928.309 706.4 926.652 706.054 925.255 705.361C923.858 704.669 922.781 703.719 922.023 702.511C921.266 701.304 920.887 699.925 920.887 698.374C920.887 696.824 921.266 695.445 922.023 694.237C922.781 693.03 923.858 692.08 925.255 691.387C926.652 690.695 928.309 690.349 930.226 690.349ZM930.226 692.479C928.652 692.479 927.323 692.743 926.24 693.27C925.157 693.79 924.338 694.498 923.781 695.391C923.225 696.279 922.947 697.273 922.947 698.374C922.947 699.475 923.225 700.472 923.781 701.366C924.338 702.254 925.157 702.961 926.24 703.488C927.323 704.009 928.652 704.269 930.226 704.269C931.801 704.269 933.13 704.009 934.213 703.488C935.296 702.961 936.115 702.254 936.672 701.366C937.228 700.472 937.506 699.475 937.506 698.374C937.506 697.273 937.228 696.279 936.672 695.391C936.115 694.498 935.296 693.79 934.213 693.27C933.13 692.743 931.801 692.479 930.226 692.479ZM921.136 672.229L939.317 672.229L939.317 674.36L925.042 684.267L925.042 684.445L939.317 684.445L939.317 686.647L921.136 686.647L921.136 684.516L935.447 674.573L935.447 674.395L921.136 674.395L921.136 672.229ZM939.317 667.823L921.136 667.823L921.136 656.85L923.089 656.85L923.089 665.622L929.232 665.622L929.232 657.419L931.185 657.419L931.185 665.622L937.364 665.622L937.364 656.708L939.317 656.708L939.317 667.823Z" fill="#FFE500"/>
</svg>
