<svg width="46" height="46" viewBox="0 0 46 46" fill="none" xmlns="http://www.w3.org/2000/svg">
<circle cx="22.3264" cy="22.3264" r="22.3264" transform="matrix(4.37114e-08 1 1 -4.37114e-08 0.54248 0.702393)" fill="#7B7B7B" fill-opacity="0.5"/>
<path d="M28.504 13.962C27.9888 13.962 27.4947 14.1667 27.1304 14.531C26.7661 14.8953 26.5614 15.3894 26.5614 15.9046C26.5614 16.4198 26.7661 16.914 27.1304 17.2783C27.4947 17.6426 27.9888 17.8473 28.504 17.8473C29.0193 17.8473 29.5134 17.6426 29.8777 17.2783C30.242 16.914 30.4467 16.4198 30.4467 15.9046C30.4467 15.3894 30.242 14.8953 29.8777 14.531C29.5134 14.1667 29.0193 13.962 28.504 13.962ZM25.2663 15.9046C25.2662 15.145 25.5332 14.4095 26.0207 13.8268C26.5081 13.2441 27.1849 12.8514 27.9326 12.7173C28.6803 12.5833 29.4514 12.7164 30.1109 13.0934C30.7704 13.4704 31.2763 14.0673 31.5402 14.7797C31.804 15.492 31.809 16.2745 31.5542 16.9901C31.2994 17.7058 30.8011 18.3091 30.1465 18.6944C29.4918 19.0798 28.7225 19.2227 27.9731 19.0981C27.2237 18.9736 26.542 18.5895 26.0473 18.013L17.3469 22.0537C17.5468 22.6876 17.5468 23.3676 17.3469 24.0015L26.0473 28.0422C26.5703 27.4339 27.3005 27.0415 28.0963 26.9409C28.8922 26.8403 29.6971 27.0388 30.3549 27.4978C31.0128 27.9569 31.4769 28.6438 31.6571 29.4255C31.8374 30.2072 31.7211 31.0279 31.3307 31.7287C30.9403 32.4295 30.3036 32.9604 29.5441 33.2186C28.7846 33.4767 27.9562 33.4437 27.2197 33.1259C26.4831 32.8082 25.8907 32.2282 25.5573 31.4986C25.224 30.769 25.1733 29.9415 25.4153 29.1767L16.7149 25.136C16.2842 25.6379 15.7101 25.9959 15.0698 26.1618C14.4296 26.3277 13.7539 26.2935 13.1336 26.0639C12.5134 25.8343 11.9783 25.4202 11.6004 24.8774C11.2226 24.3345 11.02 23.689 11.02 23.0276C11.02 22.3662 11.2226 21.7207 11.6004 21.1778C11.9783 20.635 12.5134 20.2209 13.1336 19.9913C13.7539 19.7617 14.4296 19.7275 15.0698 19.8934C15.7101 20.0593 16.2842 20.4173 16.7149 20.9192L25.4153 16.8785C25.3162 16.5634 25.266 16.235 25.2663 15.9046ZM14.2581 21.085C13.7429 21.085 13.2487 21.2896 12.8844 21.654C12.5201 22.0183 12.3154 22.5124 12.3154 23.0276C12.3154 23.5428 12.5201 24.0369 12.8844 24.4013C13.2487 24.7656 13.7429 24.9702 14.2581 24.9702C14.7733 24.9702 15.2674 24.7656 15.6317 24.4013C15.996 24.0369 16.2007 23.5428 16.2007 23.0276C16.2007 22.5124 15.996 22.0183 15.6317 21.654C15.2674 21.2896 14.7733 21.085 14.2581 21.085ZM28.504 28.208C27.9888 28.208 27.4947 28.4126 27.1304 28.7769C26.7661 29.1412 26.5614 29.6354 26.5614 30.1506C26.5614 30.6658 26.7661 31.1599 27.1304 31.5242C27.4947 31.8885 27.9888 32.0932 28.504 32.0932C29.0193 32.0932 29.5134 31.8885 29.8777 31.5242C30.242 31.1599 30.4467 30.6658 30.4467 30.1506C30.4467 29.6354 30.242 29.1412 29.8777 28.7769C29.5134 28.4126 29.0193 28.208 28.504 28.208Z" fill="#FFE500"/>
</svg>
