<svg width="1205" height="862" viewBox="0 0 1205 862" fill="none" xmlns="http://www.w3.org/2000/svg">
<rect x="487.731" y="35.8365" width="355.651" height="396.406" stroke="#FFE500" stroke-width="0.846296"/>
<path d="M882.963 428.778L864.781 428.778L864.781 417.876L866.734 417.876L866.734 426.577L872.878 426.577L872.878 418.693L874.831 418.693L874.831 426.577L882.963 426.577L882.963 428.778ZM882.963 415.63L882.963 417.938L864.781 411.262L864.781 408.99L882.963 402.313L882.963 404.622L867.657 410.055L867.657 410.197L882.963 415.63ZM875.861 414.778L875.861 405.474L877.814 405.474L877.814 414.778L875.861 414.778ZM870.463 385.705L870.463 387.907C869.83 388.037 869.273 388.265 868.794 388.591C868.314 388.91 867.912 389.301 867.586 389.762C867.255 390.218 867.006 390.724 866.841 391.28C866.675 391.837 866.592 392.417 866.592 393.021C866.592 394.121 866.87 395.119 867.427 396.012C867.983 396.9 868.803 397.607 869.886 398.134C870.969 398.655 872.298 398.915 873.872 398.915C875.446 398.915 876.775 398.655 877.858 398.134C878.941 397.607 879.761 396.9 880.317 396.012C880.874 395.119 881.152 394.121 881.152 393.021C881.152 392.417 881.069 391.837 880.903 391.28C880.738 390.724 880.492 390.218 880.166 389.762C879.835 389.301 879.43 388.91 878.95 388.591C878.465 388.265 877.908 388.037 877.281 387.907L877.281 385.705C878.21 385.871 879.042 386.173 879.776 386.611C880.51 387.049 881.134 387.593 881.649 388.244C882.158 388.895 882.546 389.626 882.812 390.437C883.078 391.242 883.211 392.103 883.211 393.021C883.211 394.571 882.833 395.95 882.075 397.158C881.318 398.365 880.24 399.315 878.844 400.007C877.447 400.7 875.79 401.046 873.872 401.046C871.954 401.046 870.297 400.7 868.9 400.007C867.504 399.315 866.426 398.365 865.669 397.158C864.911 395.95 864.532 394.571 864.532 393.021C864.532 392.103 864.666 391.242 864.932 390.437C865.198 389.626 865.589 388.895 866.104 388.244C866.613 387.593 867.234 387.049 867.968 386.611C868.696 386.173 869.528 385.871 870.463 385.705ZM882.963 382.147L864.781 382.147L864.781 371.174L866.734 371.174L866.734 379.946L872.878 379.946L872.878 371.743L874.831 371.743L874.831 379.946L881.01 379.946L881.01 371.032L882.963 371.032L882.963 382.147Z" fill="#FFE500"/>
<path d="M1160.45 592.629L1142.26 592.629L1142.26 586.272C1142.26 585.006 1142.48 583.961 1142.92 583.138C1143.35 582.316 1143.94 581.703 1144.67 581.301C1145.4 580.898 1146.21 580.697 1147.09 580.697C1147.87 580.697 1148.52 580.836 1149.03 581.114C1149.54 581.387 1149.94 581.748 1150.24 582.197C1150.53 582.641 1150.75 583.124 1150.89 583.644L1151.07 583.644C1151.11 583.088 1151.3 582.529 1151.66 581.967C1152.01 581.404 1152.52 580.934 1153.18 580.555C1153.85 580.176 1154.66 579.987 1155.62 579.987C1156.53 579.987 1157.35 580.194 1158.07 580.608C1158.8 581.023 1159.38 581.677 1159.81 582.57C1160.23 583.464 1160.45 584.627 1160.45 586.059L1160.45 592.629ZM1158.49 590.427L1158.49 586.059C1158.49 584.621 1158.21 583.6 1157.66 582.996C1157.1 582.387 1156.41 582.082 1155.62 582.082C1155 582.082 1154.43 582.239 1153.91 582.553C1153.38 582.866 1152.96 583.313 1152.65 583.893C1152.33 584.473 1152.17 585.16 1152.17 585.953L1152.17 590.427L1158.49 590.427ZM1150.25 590.427L1150.25 586.343C1150.25 585.68 1150.12 585.083 1149.86 584.55C1149.6 584.011 1149.24 583.585 1148.76 583.272C1148.29 582.952 1147.73 582.792 1147.09 582.792C1146.29 582.792 1145.62 583.07 1145.06 583.627C1144.5 584.183 1144.22 585.065 1144.22 586.272L1144.22 590.427L1150.25 590.427ZM1151.35 561.028C1153.27 561.028 1154.93 561.374 1156.33 562.067C1157.72 562.759 1158.8 563.709 1159.56 564.917C1160.32 566.124 1160.69 567.503 1160.69 569.054C1160.69 570.604 1160.32 571.983 1159.56 573.191C1158.8 574.398 1157.72 575.348 1156.33 576.041C1154.93 576.733 1153.27 577.079 1151.35 577.079C1149.44 577.079 1147.78 576.733 1146.38 576.041C1144.99 575.348 1143.91 574.398 1143.15 573.191C1142.39 571.983 1142.01 570.604 1142.01 569.054C1142.01 567.503 1142.39 566.124 1143.15 564.917C1143.91 563.709 1144.99 562.759 1146.38 562.067C1147.78 561.374 1149.44 561.028 1151.35 561.028ZM1151.35 563.159C1149.78 563.159 1148.45 563.422 1147.37 563.949C1146.29 564.47 1145.47 565.177 1144.91 566.071C1144.35 566.959 1144.07 567.953 1144.07 569.054C1144.07 570.155 1144.35 571.152 1144.91 572.046C1145.47 572.933 1146.29 573.641 1147.37 574.167C1148.45 574.688 1149.78 574.949 1151.35 574.949C1152.93 574.949 1154.26 574.688 1155.34 574.167C1156.42 573.641 1157.24 572.933 1157.8 572.046C1158.36 571.152 1158.63 570.155 1158.63 569.054C1158.63 567.953 1158.36 566.959 1157.8 566.071C1157.24 565.177 1156.42 564.47 1155.34 563.949C1154.26 563.422 1152.93 563.159 1151.35 563.159ZM1160.45 551.715L1160.45 557.326L1142.26 557.326L1142.26 551.467C1142.26 549.703 1142.63 548.194 1143.36 546.939C1144.08 545.684 1145.12 544.723 1146.47 544.054C1147.82 543.385 1149.44 543.051 1151.32 543.051C1153.21 543.051 1154.84 543.388 1156.21 544.063C1157.57 544.737 1158.62 545.72 1159.35 547.01C1160.08 548.3 1160.45 549.869 1160.45 551.715ZM1158.49 555.124L1158.49 551.857C1158.49 550.354 1158.2 549.108 1157.62 548.12C1157.04 547.131 1156.22 546.395 1155.15 545.909C1154.07 545.424 1152.8 545.181 1151.32 545.181C1149.85 545.181 1148.59 545.421 1147.53 545.9C1146.46 546.38 1145.65 547.096 1145.08 548.049C1144.5 549.002 1144.22 550.188 1144.22 551.609L1144.22 555.124L1158.49 555.124ZM1142.26 541.774L1142.26 539.253L1150.75 534.21L1150.75 533.997L1142.26 528.955L1142.26 526.433L1152.95 533.003L1160.45 533.003L1160.45 535.205L1152.95 535.205L1142.26 541.774Z" fill="white"/>
<path d="M1127.8 0.47998C1127.8 287.48 1127.8 861.48 1127.8 861.48" stroke="white" stroke-width="0.846296"/>
<path d="M250.628 0.47998C250.628 287.48 250.628 861.48 250.628 861.48" stroke="white" stroke-width="0.846296"/>
<path d="M0.808594 516.092C402.024 516.091 1204.46 516.091 1204.46 516.091" stroke="white"/>
</svg>
