<svg width="1205" height="862" viewBox="0 0 1205 862" fill="none" xmlns="http://www.w3.org/2000/svg">
<rect x="314.755" y="47.277" width="308.527" height="308.527" stroke="#FFE500" stroke-width="0.846296"/>
<path d="M653.992 344.496L635.81 344.496L635.81 333.594L637.763 333.594L637.763 342.294L643.907 342.294L643.907 334.411L645.86 334.411L645.86 342.294L653.992 342.294L653.992 344.496ZM653.992 331.348L653.992 333.656L635.81 326.98L635.81 324.707L653.992 318.031L653.992 320.339L638.687 325.773L638.687 325.915L653.992 331.348ZM646.89 330.496L646.89 321.192L648.843 321.192L648.843 330.496L646.89 330.496ZM641.492 301.423L641.492 303.625C640.859 303.755 640.303 303.983 639.823 304.308C639.344 304.628 638.941 305.018 638.616 305.48C638.284 305.936 638.036 306.442 637.87 306.998C637.704 307.554 637.621 308.135 637.621 308.738C637.621 309.839 637.9 310.836 638.456 311.73C639.012 312.618 639.832 313.325 640.915 313.852C641.998 314.373 643.327 314.633 644.901 314.633C646.476 314.633 647.804 314.373 648.887 313.852C649.971 313.325 650.79 312.618 651.347 311.73C651.903 310.836 652.181 309.839 652.181 308.738C652.181 308.135 652.098 307.554 651.933 306.998C651.767 306.442 651.521 305.936 651.196 305.48C650.864 305.018 650.459 304.628 649.979 304.308C649.494 303.983 648.938 303.755 648.31 303.625L648.31 301.423C649.24 301.589 650.071 301.89 650.805 302.328C651.539 302.766 652.163 303.311 652.678 303.962C653.187 304.613 653.575 305.344 653.841 306.155C654.108 306.96 654.241 307.821 654.241 308.738C654.241 310.289 653.862 311.668 653.104 312.875C652.347 314.083 651.27 315.033 649.873 315.725C648.476 316.418 646.819 316.764 644.901 316.764C642.984 316.764 641.326 316.418 639.93 315.725C638.533 315.033 637.456 314.083 636.698 312.875C635.941 311.668 635.562 310.289 635.562 308.738C635.562 307.821 635.695 306.96 635.961 306.155C636.228 305.344 636.618 304.613 637.133 303.962C637.642 303.311 638.264 302.766 638.998 302.328C639.725 301.89 640.557 301.589 641.492 301.423ZM653.992 297.865L635.81 297.865L635.81 286.892L637.763 286.892L637.763 295.663L643.907 295.663L643.907 287.46L645.86 287.46L645.86 295.663L652.039 295.663L652.039 286.75L653.992 286.75L653.992 297.865Z" fill="#FFE500"/>
<path d="M824.679 566.466L806.497 566.466L806.497 560.109C806.497 558.843 806.716 557.798 807.154 556.975C807.586 556.153 808.169 555.54 808.903 555.138C809.631 554.735 810.439 554.534 811.326 554.534C812.108 554.534 812.753 554.673 813.262 554.951C813.771 555.224 814.173 555.585 814.469 556.034C814.765 556.478 814.984 556.961 815.126 557.482L815.304 557.482C815.339 556.925 815.535 556.366 815.89 555.804C816.245 555.241 816.754 554.771 817.417 554.392C818.08 554.013 818.89 553.824 819.849 553.824C820.761 553.824 821.58 554.031 822.308 554.445C823.036 554.86 823.613 555.514 824.04 556.407C824.466 557.301 824.679 558.464 824.679 559.896L824.679 566.466ZM822.726 564.264L822.726 559.896C822.726 558.458 822.447 557.437 821.891 556.833C821.329 556.224 820.648 555.919 819.849 555.919C819.234 555.919 818.665 556.076 818.145 556.39C817.618 556.703 817.198 557.15 816.884 557.73C816.564 558.31 816.405 558.997 816.405 559.79L816.405 564.264L822.726 564.264ZM814.487 564.264L814.487 560.18C814.487 559.518 814.357 558.92 814.096 558.387C813.836 557.848 813.469 557.422 812.995 557.109C812.522 556.789 811.966 556.629 811.326 556.629C810.527 556.629 809.85 556.907 809.293 557.464C808.731 558.02 808.45 558.902 808.45 560.109L808.45 564.264L814.487 564.264ZM815.588 534.865C817.505 534.865 819.163 535.211 820.559 535.904C821.956 536.596 823.033 537.546 823.791 538.754C824.549 539.961 824.927 541.34 824.927 542.891C824.927 544.441 824.549 545.82 823.791 547.028C823.033 548.235 821.956 549.185 820.559 549.878C819.163 550.57 817.505 550.916 815.588 550.916C813.67 550.916 812.013 550.57 810.616 549.878C809.219 549.185 808.142 548.235 807.385 547.028C806.627 545.82 806.248 544.441 806.248 542.891C806.248 541.34 806.627 539.961 807.385 538.754C808.142 537.546 809.219 536.596 810.616 535.904C812.013 535.211 813.67 534.865 815.588 534.865ZM815.588 536.996C814.013 536.996 812.685 537.259 811.602 537.786C810.519 538.307 809.699 539.014 809.142 539.908C808.586 540.796 808.308 541.79 808.308 542.891C808.308 543.992 808.586 544.989 809.142 545.883C809.699 546.77 810.519 547.478 811.602 548.004C812.685 548.525 814.013 548.786 815.588 548.786C817.162 548.786 818.491 548.525 819.574 548.004C820.657 547.478 821.477 546.77 822.033 545.883C822.589 544.989 822.868 543.992 822.868 542.891C822.868 541.79 822.589 540.796 822.033 539.908C821.477 539.014 820.657 538.307 819.574 537.786C818.491 537.259 817.162 536.996 815.588 536.996ZM824.679 525.552L824.679 531.163L806.497 531.163L806.497 525.304C806.497 523.54 806.861 522.031 807.589 520.776C808.311 519.521 809.35 518.56 810.705 517.891C812.054 517.222 813.67 516.888 815.552 516.888C817.446 516.888 819.077 517.225 820.444 517.9C821.805 518.574 822.853 519.557 823.587 520.847C824.315 522.137 824.679 523.706 824.679 525.552ZM822.726 528.961L822.726 525.694C822.726 524.191 822.436 522.945 821.856 521.957C821.276 520.968 820.45 520.232 819.379 519.746C818.307 519.261 817.032 519.018 815.552 519.018C814.084 519.018 812.821 519.258 811.761 519.737C810.696 520.217 809.879 520.933 809.311 521.886C808.737 522.839 808.45 524.025 808.45 525.446L808.45 528.961L822.726 528.961ZM806.497 515.611L806.497 513.09L814.984 508.047L814.984 507.834L806.497 502.792L806.497 500.27L817.186 506.84L824.679 506.84L824.679 509.042L817.186 509.042L806.497 515.611Z" fill="white"/>
<path d="M790.578 0.480103C790.578 287.48 790.578 861.48 790.578 861.48" stroke="white" stroke-width="0.846296"/>
<path d="M173.757 0.480103C173.757 287.48 173.757 861.48 173.757 861.48" stroke="white" stroke-width="0.846296"/>
<path d="M0.808594 389.093C402.024 389.093 1204.46 389.093 1204.46 389.093" stroke="white"/>
</svg>
