<svg width="1205" height="862" viewBox="0 0 1205 862" fill="none" xmlns="http://www.w3.org/2000/svg">
<rect x="323.059" y="82.386" width="385.967" height="430.188" stroke="#FFE500" stroke-width="0.846296"/>
<path d="M751.757 498.662L733.575 498.662L733.575 487.76L735.528 487.76L735.528 496.46L741.672 496.46L741.672 488.576L743.625 488.576L743.625 496.46L751.757 496.46L751.757 498.662ZM751.757 485.513L751.757 487.822L733.575 481.146L733.575 478.873L751.757 472.197L751.757 474.505L736.451 479.938L736.451 480.08L751.757 485.513ZM744.655 484.661L744.655 475.357L746.608 475.357L746.608 484.661L744.655 484.661ZM739.257 455.589L739.257 457.79C738.624 457.92 738.067 458.148 737.588 458.474C737.108 458.793 736.706 459.184 736.38 459.646C736.049 460.101 735.8 460.607 735.635 461.164C735.469 461.72 735.386 462.3 735.386 462.904C735.386 464.005 735.664 465.002 736.221 465.896C736.777 466.783 737.597 467.491 738.68 468.017C739.763 468.538 741.092 468.799 742.666 468.799C744.24 468.799 745.569 468.538 746.652 468.017C747.735 467.491 748.555 466.783 749.111 465.896C749.668 465.002 749.946 464.005 749.946 462.904C749.946 462.3 749.863 461.72 749.697 461.164C749.531 460.607 749.286 460.101 748.96 459.646C748.629 459.184 748.223 458.793 747.744 458.474C747.259 458.148 746.702 457.92 746.075 457.79L746.075 455.589C747.004 455.754 747.836 456.056 748.57 456.494C749.304 456.932 749.928 457.477 750.443 458.128C750.952 458.779 751.34 459.51 751.606 460.32C751.872 461.125 752.005 461.986 752.005 462.904C752.005 464.455 751.627 465.834 750.869 467.041C750.111 468.248 749.034 469.198 747.638 469.891C746.241 470.583 744.584 470.929 742.666 470.929C740.748 470.929 739.091 470.583 737.694 469.891C736.298 469.198 735.22 468.248 734.463 467.041C733.705 465.834 733.326 464.455 733.326 462.904C733.326 461.986 733.46 461.125 733.726 460.32C733.992 459.51 734.383 458.779 734.898 458.128C735.407 457.477 736.028 456.932 736.762 456.494C737.49 456.056 738.322 455.754 739.257 455.589ZM751.757 452.031L733.575 452.031L733.575 441.058L735.528 441.058L735.528 449.829L741.672 449.829L741.672 441.626L743.625 441.626L743.625 449.829L749.804 449.829L749.804 440.916L751.757 440.916L751.757 452.031Z" fill="#FFE500"/>
<path d="M878.199 632.014L860.017 632.014L860.017 625.658C860.017 624.391 860.236 623.346 860.674 622.524C861.106 621.701 861.689 621.088 862.423 620.686C863.151 620.284 863.959 620.082 864.847 620.082C865.628 620.082 866.273 620.221 866.782 620.5C867.291 620.772 867.694 621.133 867.99 621.583C868.286 622.027 868.505 622.509 868.647 623.03L868.824 623.03C868.86 622.473 869.055 621.914 869.41 621.352C869.765 620.79 870.274 620.319 870.937 619.94C871.6 619.561 872.411 619.372 873.37 619.372C874.281 619.372 875.101 619.579 875.829 619.994C876.557 620.408 877.134 621.062 877.56 621.956C877.986 622.849 878.199 624.012 878.199 625.445L878.199 632.014ZM876.246 629.812L876.246 625.445C876.246 624.006 875.968 622.985 875.412 622.382C874.849 621.772 874.169 621.467 873.37 621.467C872.754 621.467 872.186 621.624 871.665 621.938C871.138 622.251 870.718 622.698 870.404 623.278C870.085 623.858 869.925 624.545 869.925 625.338L869.925 629.812L876.246 629.812ZM868.007 629.812L868.007 625.729C868.007 625.066 867.877 624.468 867.617 623.935C867.356 623.397 866.989 622.971 866.516 622.657C866.042 622.337 865.486 622.177 864.847 622.177C864.048 622.177 863.37 622.456 862.814 623.012C862.252 623.568 861.971 624.45 861.971 625.658L861.971 629.812L868.007 629.812ZM869.108 600.413C871.026 600.413 872.683 600.76 874.08 601.452C875.477 602.145 876.554 603.095 877.311 604.302C878.069 605.509 878.448 606.888 878.448 608.439C878.448 609.99 878.069 611.369 877.311 612.576C876.554 613.783 875.477 614.733 874.08 615.426C872.683 616.118 871.026 616.465 869.108 616.465C867.191 616.465 865.533 616.118 864.137 615.426C862.74 614.733 861.663 613.783 860.905 612.576C860.148 611.369 859.769 609.99 859.769 608.439C859.769 606.888 860.148 605.509 860.905 604.302C861.663 603.095 862.74 602.145 864.137 601.452C865.533 600.76 867.191 600.413 869.108 600.413ZM869.108 602.544C867.534 602.544 866.205 602.807 865.122 603.334C864.039 603.855 863.219 604.562 862.663 605.456C862.107 606.344 861.828 607.338 861.828 608.439C861.828 609.54 862.107 610.537 862.663 611.431C863.219 612.319 864.039 613.026 865.122 613.553C866.205 614.073 867.534 614.334 869.108 614.334C870.683 614.334 872.011 614.073 873.094 613.553C874.178 613.026 874.997 612.319 875.554 611.431C876.11 610.537 876.388 609.54 876.388 608.439C876.388 607.338 876.11 606.344 875.554 605.456C874.997 604.562 874.178 603.855 873.094 603.334C872.011 602.807 870.683 602.544 869.108 602.544ZM878.199 591.101L878.199 596.711L860.017 596.711L860.017 590.852C860.017 589.088 860.381 587.579 861.109 586.324C861.831 585.07 862.87 584.108 864.225 583.439C865.575 582.77 867.191 582.436 869.073 582.436C870.967 582.436 872.597 582.773 873.964 583.448C875.326 584.123 876.373 585.105 877.107 586.395C877.835 587.686 878.199 589.254 878.199 591.101ZM876.246 594.51L876.246 591.243C876.246 589.739 875.956 588.493 875.376 587.505C874.796 586.517 873.97 585.78 872.899 585.294C871.828 584.809 870.552 584.566 869.073 584.566C867.605 584.566 866.341 584.806 865.282 585.286C864.217 585.765 863.4 586.481 862.832 587.434C862.258 588.387 861.971 589.574 861.971 590.994L861.971 594.51L876.246 594.51ZM860.017 581.16L860.017 578.638L868.505 573.596L868.505 573.383L860.017 568.34L860.017 565.819L870.706 572.388L878.199 572.388L878.199 574.59L870.706 574.59L860.017 581.16Z" fill="white"/>
<path d="M844.033 0.496094C844.033 287.496 844.033 861.496 844.033 861.496" stroke="white" stroke-width="0.846296"/>
<path d="M0.80957 555.478C402.025 555.477 1204.46 555.477 1204.46 555.477" stroke="white"/>
</svg>
