<svg width="1205" height="862" viewBox="0 0 1205 862" fill="none" xmlns="http://www.w3.org/2000/svg">
<rect x="342.975" y="58.1632" width="637.287" height="628.597" stroke="#FFE500"/>
<path d="M1015.48 676.454L997.299 676.454L997.299 665.552L999.252 665.552L999.252 674.253L1005.4 674.253L1005.4 666.369L1007.35 666.369L1007.35 674.253L1015.48 674.253L1015.48 676.454ZM1015.48 663.306L1015.48 665.615L997.299 658.938L997.299 656.666L1015.48 649.99L1015.48 652.298L1000.18 657.731L1000.18 657.873L1015.48 663.306ZM1008.38 662.454L1008.38 653.15L1010.33 653.15L1010.33 662.454L1008.38 662.454ZM1002.98 633.381L1002.98 635.583C1002.35 635.713 1001.79 635.941 1001.31 636.267C1000.83 636.586 1000.43 636.977 1000.1 637.438C999.773 637.894 999.524 638.4 999.358 638.957C999.193 639.513 999.11 640.093 999.11 640.697C999.11 641.797 999.388 642.795 999.944 643.688C1000.5 644.576 1001.32 645.284 1002.4 645.81C1003.49 646.331 1004.82 646.592 1006.39 646.592C1007.96 646.592 1009.29 646.331 1010.38 645.81C1011.46 645.284 1012.28 644.576 1012.83 643.688C1013.39 642.795 1013.67 641.797 1013.67 640.697C1013.67 640.093 1013.59 639.513 1013.42 638.957C1013.26 638.4 1013.01 637.894 1012.68 637.438C1012.35 636.977 1011.95 636.586 1011.47 636.267C1010.98 635.941 1010.43 635.713 1009.8 635.583L1009.8 633.381C1010.73 633.547 1011.56 633.849 1012.29 634.287C1013.03 634.725 1013.65 635.269 1014.17 635.92C1014.68 636.571 1015.06 637.302 1015.33 638.113C1015.6 638.918 1015.73 639.779 1015.73 640.697C1015.73 642.247 1015.35 643.626 1014.59 644.834C1013.84 646.041 1012.76 646.991 1011.36 647.683C1009.96 648.376 1008.31 648.722 1006.39 648.722C1004.47 648.722 1002.81 648.376 1001.42 647.683C1000.02 646.991 998.944 646.041 998.186 644.834C997.429 643.626 997.05 642.247 997.05 640.697C997.05 639.779 997.183 638.918 997.45 638.113C997.716 637.302 998.107 636.571 998.621 635.92C999.13 635.269 999.752 634.725 1000.49 634.287C1001.21 633.849 1002.05 633.547 1002.98 633.381ZM1015.48 629.824L997.299 629.824L997.299 618.85L999.252 618.85L999.252 627.622L1005.4 627.622L1005.4 619.419L1007.35 619.419L1007.35 627.622L1013.53 627.622L1013.53 618.708L1015.48 618.708L1015.48 629.824Z" fill="#FFE500"/>
<path d="M786.204 842.899L768.022 842.899L768.022 836.542C768.022 835.276 768.241 834.231 768.679 833.408C769.111 832.586 769.694 831.973 770.428 831.571C771.156 831.168 771.964 830.967 772.852 830.967C773.633 830.967 774.278 831.106 774.787 831.384C775.296 831.656 775.699 832.017 775.995 832.467C776.291 832.911 776.509 833.393 776.652 833.914L776.829 833.914C776.865 833.358 777.06 832.799 777.415 832.236C777.77 831.674 778.279 831.204 778.942 830.825C779.605 830.446 780.416 830.257 781.375 830.257C782.286 830.257 783.106 830.464 783.834 830.878C784.562 831.292 785.139 831.946 785.565 832.84C785.991 833.734 786.204 834.897 786.204 836.329L786.204 842.899ZM784.251 840.697L784.251 836.329C784.251 834.891 783.973 833.87 783.416 833.266C782.854 832.657 782.174 832.352 781.375 832.352C780.759 832.352 780.191 832.509 779.67 832.822C779.143 833.136 778.723 833.583 778.409 834.163C778.09 834.743 777.93 835.429 777.93 836.223L777.93 840.697L784.251 840.697ZM776.012 840.697L776.012 836.613C776.012 835.95 775.882 835.353 775.622 834.82C775.361 834.281 774.994 833.855 774.521 833.541C774.047 833.222 773.491 833.062 772.852 833.062C772.053 833.062 771.375 833.34 770.819 833.897C770.257 834.453 769.975 835.335 769.975 836.542L769.975 840.697L776.012 840.697ZM777.113 811.298C779.031 811.298 780.688 811.644 782.085 812.337C783.482 813.029 784.559 813.979 785.316 815.187C786.074 816.394 786.453 817.773 786.453 819.324C786.453 820.874 786.074 822.253 785.316 823.461C784.559 824.668 783.482 825.618 782.085 826.31C780.688 827.003 779.031 827.349 777.113 827.349C775.196 827.349 773.538 827.003 772.142 826.31C770.745 825.618 769.668 824.668 768.91 823.461C768.152 822.253 767.774 820.874 767.774 819.324C767.774 817.773 768.152 816.394 768.91 815.187C769.668 813.979 770.745 813.029 772.142 812.337C773.538 811.644 775.196 811.298 777.113 811.298ZM777.113 813.429C775.539 813.429 774.21 813.692 773.127 814.219C772.044 814.74 771.224 815.447 770.668 816.341C770.112 817.228 769.833 818.223 769.833 819.324C769.833 820.424 770.112 821.422 770.668 822.315C771.224 823.203 772.044 823.91 773.127 824.437C774.21 824.958 775.539 825.218 777.113 825.218C778.688 825.218 780.016 824.958 781.099 824.437C782.182 823.91 783.002 823.203 783.559 822.315C784.115 821.422 784.393 820.424 784.393 819.324C784.393 818.223 784.115 817.228 783.559 816.341C783.002 815.447 782.182 814.74 781.099 814.219C780.016 813.692 778.688 813.429 777.113 813.429ZM786.204 801.985L786.204 807.596L768.022 807.596L768.022 801.737C768.022 799.973 768.386 798.464 769.114 797.209C769.836 795.954 770.875 794.992 772.23 794.324C773.58 793.655 775.196 793.32 777.078 793.32C778.972 793.32 780.602 793.658 781.969 794.332C783.331 795.007 784.378 795.99 785.112 797.28C785.84 798.57 786.204 800.139 786.204 801.985ZM784.251 805.394L784.251 802.127C784.251 800.624 783.961 799.378 783.381 798.39C782.801 797.401 781.975 796.664 780.904 796.179C779.833 795.694 778.557 795.451 777.078 795.451C775.61 795.451 774.346 795.691 773.287 796.17C772.221 796.65 771.405 797.366 770.837 798.319C770.262 799.272 769.975 800.458 769.975 801.879L769.975 805.394L784.251 805.394ZM768.022 792.044L768.022 789.523L776.509 784.48L776.509 784.267L768.022 779.225L768.022 776.703L778.711 783.273L786.204 783.273L786.204 785.475L778.711 785.475L768.022 792.044Z" fill="white"/>
<path d="M751.926 0.975025C751.926 287.975 751.926 861.975 751.926 861.975" stroke="white"/>
<path d="M49.8447 0.975025C49.8447 287.975 49.8448 861.975 49.8448 861.975" stroke="white"/>
<path d="M0.808594 500.776C402.024 500.776 1204.46 500.776 1204.46 500.776" stroke="white"/>
</svg>
