<svg width="1205" height="862" viewBox="0 0 1205 862" fill="none" xmlns="http://www.w3.org/2000/svg">
<rect x="284.309" y="60.1321" width="636.649" height="709.529" stroke="#FFE500" stroke-width="0.846296"/>
<rect x="68.8616" y="399.751" width="411.63" height="411.63" stroke="white" stroke-width="0.846296"/>
<rect x="724.394" y="399.751" width="411.63" height="411.63" stroke="white" stroke-width="0.846296"/>
<path d="M956.413 119.08L938.231 119.08L938.231 108.178L940.184 108.178L940.184 116.878L946.328 116.878L946.328 108.994L948.281 108.994L948.281 116.878L956.413 116.878L956.413 119.08ZM956.413 105.931L956.413 108.24L938.231 101.564L938.231 99.2908L956.413 92.6147L956.413 94.9229L941.108 100.356L941.108 100.498L956.413 105.931ZM949.311 105.079L949.311 95.7752L951.264 95.7752L951.264 105.079L949.311 105.079ZM943.913 76.0065L943.913 78.2082C943.28 78.3384 942.723 78.5663 942.244 78.8918C941.765 79.2114 941.362 79.602 941.037 80.0637C940.705 80.5194 940.457 81.0254 940.291 81.5818C940.125 82.1381 940.042 82.7181 940.042 83.3218C940.042 84.4227 940.321 85.42 940.877 86.3137C941.433 87.2014 942.253 87.9087 943.336 88.4355C944.419 88.9563 945.748 89.2167 947.322 89.2167C948.897 89.2167 950.225 88.9563 951.308 88.4355C952.391 87.9087 953.211 87.2014 953.767 86.3137C954.324 85.42 954.602 84.4227 954.602 83.3218C954.602 82.7181 954.519 82.1381 954.353 81.5818C954.188 81.0254 953.942 80.5194 953.617 80.0637C953.285 79.602 952.88 79.2114 952.4 78.8918C951.915 78.5663 951.359 78.3384 950.731 78.2082L950.731 76.0065C951.66 76.1722 952.492 76.474 953.226 76.912C953.96 77.35 954.584 77.8945 955.099 78.5455C955.608 79.1966 955.996 79.9275 956.262 80.7384C956.528 81.5433 956.662 82.4044 956.662 83.3218C956.662 84.8725 956.283 86.2515 955.525 87.4589C954.768 88.6663 953.691 89.6162 952.294 90.3087C950.897 91.0012 949.24 91.3474 947.322 91.3474C945.405 91.3474 943.747 91.0012 942.351 90.3087C940.954 89.6162 939.877 88.6663 939.119 87.4589C938.361 86.2515 937.983 84.8725 937.983 83.3218C937.983 82.4044 938.116 81.5433 938.382 80.7384C938.649 79.9275 939.039 79.1966 939.554 78.5455C940.063 77.8945 940.685 77.35 941.418 76.912C942.146 76.474 942.978 76.1722 943.913 76.0065ZM956.413 72.4487L938.231 72.4487L938.231 61.4757L940.184 61.4757L940.184 70.247L946.328 70.247L946.328 62.0439L948.281 62.0439L948.281 70.247L954.46 70.247L954.46 61.3336L956.413 61.3336L956.413 72.4487Z" fill="#FFE500"/>
<path d="M1173.5 475.866L1155.32 475.866L1155.32 473.664L1163.42 473.664L1163.42 463.969L1155.32 463.969L1155.32 461.768L1173.5 461.768L1173.5 463.969L1165.37 463.969L1165.37 473.664L1173.5 473.664L1173.5 475.866ZM1173.5 456.614L1173.5 458.922L1155.32 452.246L1155.32 449.973L1173.5 443.297L1173.5 445.606L1158.2 451.039L1158.2 451.181L1173.5 456.614ZM1166.4 455.762L1166.4 446.458L1168.36 446.458L1168.36 455.762L1166.4 455.762ZM1155.32 426.048L1173.5 426.048L1173.5 428.178L1159.23 438.086L1159.23 438.264L1173.5 438.264L1173.5 440.465L1155.32 440.465L1155.32 438.335L1169.63 428.391L1169.63 428.214L1155.32 428.214L1155.32 426.048ZM1173.5 416.031L1173.5 421.642L1155.32 421.642L1155.32 415.783C1155.32 414.019 1155.69 412.51 1156.42 411.255C1157.14 410 1158.18 409.038 1159.53 408.37C1160.88 407.701 1162.5 407.366 1164.38 407.366C1166.27 407.366 1167.9 407.704 1169.27 408.379C1170.63 409.053 1171.68 410.036 1172.41 411.326C1173.14 412.616 1173.5 414.185 1173.5 416.031ZM1171.55 419.44L1171.55 416.173C1171.55 414.67 1171.26 413.424 1170.68 412.436C1170.1 411.447 1169.28 410.71 1168.2 410.225C1167.13 409.74 1165.86 409.497 1164.38 409.497C1162.91 409.497 1161.65 409.737 1160.59 410.216C1159.52 410.696 1158.71 411.412 1158.14 412.365C1157.56 413.318 1157.28 414.504 1157.28 415.925L1157.28 419.44L1171.55 419.44Z" fill="white"/>
<path d="M45.002 475.866L26.8201 475.866L26.8201 473.664L34.9167 473.664L34.9167 463.969L26.8201 463.969L26.8201 461.768L45.002 461.768L45.002 463.969L36.8699 463.969L36.8699 473.664L45.002 473.664L45.002 475.866ZM45.002 456.614L45.002 458.922L26.8201 452.246L26.8201 449.973L45.002 443.297L45.002 445.606L29.6966 451.039L29.6966 451.181L45.002 456.614ZM37.8997 455.762L37.8997 446.458L39.8528 446.458L39.8528 455.762L37.8997 455.762ZM26.8201 426.048L45.002 426.048L45.002 428.178L30.7264 438.086L30.7264 438.264L45.002 438.264L45.002 440.465L26.8201 440.465L26.8201 438.335L41.1312 428.391L41.1312 428.214L26.8201 428.214L26.8201 426.048ZM45.002 416.031L45.002 421.642L26.8201 421.642L26.8201 415.783C26.8201 414.019 27.1841 412.51 27.9121 411.255C28.6342 410 29.6729 409.038 31.0282 408.37C32.3777 407.701 33.9934 407.366 35.8755 407.366C37.7695 407.366 39.4 407.704 40.7672 408.379C42.1285 409.053 43.1761 410.036 43.91 411.326C44.638 412.616 45.002 414.185 45.002 416.031ZM43.0488 419.44L43.0488 416.173C43.0488 414.67 42.7588 413.424 42.1788 412.436C41.5988 411.447 40.7731 410.71 39.7019 410.225C38.6306 409.74 37.3552 409.497 35.8755 409.497C34.4077 409.497 33.1441 409.737 32.0847 410.216C31.0194 410.696 30.2026 411.412 29.6344 412.365C29.0603 413.318 28.7733 414.504 28.7733 415.925L28.7733 419.44L43.0488 419.44Z" fill="white"/>
</svg>
