<svg width="1205" height="862" viewBox="0 0 1205 862" fill="none" xmlns="http://www.w3.org/2000/svg">
<path d="M1188.99 562.493L1170.81 562.493L1170.81 556.136C1170.81 554.87 1171.03 553.825 1171.46 553.002C1171.9 552.18 1172.48 551.567 1173.21 551.165C1173.94 550.762 1174.75 550.561 1175.64 550.561C1176.42 550.561 1177.06 550.7 1177.57 550.978C1178.08 551.25 1178.48 551.611 1178.78 552.061C1179.08 552.505 1179.29 552.987 1179.44 553.508L1179.61 553.508C1179.65 552.952 1179.85 552.393 1180.2 551.83C1180.56 551.268 1181.06 550.798 1181.73 550.419C1182.39 550.04 1183.2 549.851 1184.16 549.851C1185.07 549.851 1185.89 550.058 1186.62 550.472C1187.35 550.886 1187.92 551.54 1188.35 552.434C1188.78 553.328 1188.99 554.491 1188.99 555.923L1188.99 562.493ZM1187.04 560.291L1187.04 555.923C1187.04 554.485 1186.76 553.464 1186.2 552.86C1185.64 552.251 1184.96 551.946 1184.16 551.946C1183.54 551.946 1182.98 552.103 1182.46 552.416C1181.93 552.73 1181.51 553.177 1181.19 553.757C1180.87 554.337 1180.72 555.023 1180.72 555.816L1180.72 560.291L1187.04 560.291ZM1178.8 560.291L1178.8 556.207C1178.8 555.544 1178.67 554.946 1178.41 554.414C1178.15 553.875 1177.78 553.449 1177.31 553.135C1176.83 552.816 1176.28 552.656 1175.64 552.656C1174.84 552.656 1174.16 552.934 1173.6 553.49C1173.04 554.047 1172.76 554.929 1172.76 556.136L1172.76 560.291L1178.8 560.291ZM1179.9 530.892C1181.82 530.892 1183.47 531.238 1184.87 531.931C1186.27 532.623 1187.34 533.573 1188.1 534.78C1188.86 535.988 1189.24 537.367 1189.24 538.918C1189.24 540.468 1188.86 541.847 1188.1 543.055C1187.34 544.262 1186.27 545.212 1184.87 545.904C1183.47 546.597 1181.82 546.943 1179.9 546.943C1177.98 546.943 1176.32 546.597 1174.93 545.904C1173.53 545.212 1172.45 544.262 1171.7 543.055C1170.94 541.847 1170.56 540.468 1170.56 538.918C1170.56 537.367 1170.94 535.988 1171.7 534.78C1172.45 533.573 1173.53 532.623 1174.93 531.931C1176.32 531.238 1177.98 530.892 1179.9 530.892ZM1179.9 533.023C1178.32 533.023 1177 533.286 1175.91 533.813C1174.83 534.334 1174.01 535.041 1173.45 535.935C1172.9 536.822 1172.62 537.817 1172.62 538.918C1172.62 540.018 1172.9 541.016 1173.45 541.909C1174.01 542.797 1174.83 543.504 1175.91 544.031C1177 544.552 1178.32 544.812 1179.9 544.812C1181.47 544.812 1182.8 544.552 1183.88 544.031C1184.97 543.504 1185.79 542.797 1186.34 541.909C1186.9 541.016 1187.18 540.018 1187.18 538.918C1187.18 537.817 1186.9 536.822 1186.34 535.935C1185.79 535.041 1184.97 534.334 1183.88 533.813C1182.8 533.286 1181.47 533.023 1179.9 533.023ZM1188.99 521.579L1188.99 527.19L1170.81 527.19L1170.81 521.331C1170.81 519.567 1171.17 518.058 1171.9 516.803C1172.62 515.548 1173.66 514.586 1175.02 513.918C1176.36 513.249 1177.98 512.914 1179.86 512.914C1181.76 512.914 1183.39 513.252 1184.75 513.926C1186.12 514.601 1187.16 515.584 1187.9 516.874C1188.63 518.164 1188.99 519.733 1188.99 521.579ZM1187.04 524.988L1187.04 521.721C1187.04 520.218 1186.75 518.972 1186.17 517.984C1185.59 516.995 1184.76 516.258 1183.69 515.773C1182.62 515.288 1181.34 515.045 1179.86 515.045C1178.4 515.045 1177.13 515.285 1176.07 515.764C1175.01 516.244 1174.19 516.96 1173.62 517.913C1173.05 518.865 1172.76 520.052 1172.76 521.473L1172.76 524.988L1187.04 524.988ZM1170.81 511.638L1170.81 509.117L1179.29 504.074L1179.29 503.861L1170.81 498.819L1170.81 496.297L1181.5 502.867L1188.99 502.867L1188.99 505.069L1181.5 505.069L1170.81 511.638Z" fill="white"/>
<path d="M0.808594 575.92C402.024 575.92 1204.46 575.92 1204.46 575.92" stroke="white"/>
<rect x="455.215" y="269.361" width="294.833" height="294.833" stroke="#FFE500"/>
<rect x="110.008" y="269.361" width="294.833" height="294.833" stroke="#FFE500"/>
<rect x="788.232" y="269.361" width="294.833" height="294.833" stroke="#FFE500"/>
<path d="M441.53 562.493L423.348 562.493L423.348 551.591L425.302 551.591L425.302 560.291L431.445 560.291L431.445 552.407L433.398 552.407L433.398 560.291L441.53 560.291L441.53 562.493ZM441.53 549.345L441.53 551.653L423.348 544.977L423.348 542.704L441.53 536.028L441.53 538.336L426.225 543.769L426.225 543.911L441.53 549.345ZM434.428 548.492L434.428 539.188L436.381 539.188L436.381 548.492L434.428 548.492ZM429.03 519.42L429.03 521.621C428.397 521.751 427.841 521.979 427.361 522.305C426.882 522.624 426.479 523.015 426.154 523.477C425.822 523.932 425.574 524.439 425.408 524.995C425.242 525.551 425.16 526.131 425.16 526.735C425.16 527.836 425.438 528.833 425.994 529.727C426.55 530.615 427.37 531.322 428.453 531.849C429.536 532.369 430.865 532.63 432.439 532.63C434.014 532.63 435.342 532.369 436.426 531.849C437.509 531.322 438.328 530.615 438.885 529.727C439.441 528.833 439.719 527.836 439.719 526.735C439.719 526.131 439.636 525.551 439.471 524.995C439.305 524.439 439.059 523.932 438.734 523.477C438.402 523.015 437.997 522.624 437.517 522.305C437.032 521.979 436.476 521.751 435.848 521.621L435.848 519.42C436.778 519.585 437.609 519.887 438.343 520.325C439.077 520.763 439.701 521.308 440.216 521.959C440.725 522.61 441.113 523.341 441.379 524.151C441.646 524.956 441.779 525.818 441.779 526.735C441.779 528.286 441.4 529.665 440.642 530.872C439.885 532.079 438.808 533.029 437.411 533.722C436.014 534.414 434.357 534.76 432.439 534.76C430.522 534.76 428.865 534.414 427.468 533.722C426.071 533.029 424.994 532.079 424.236 530.872C423.479 529.665 423.1 528.286 423.1 526.735C423.1 525.818 423.233 524.956 423.499 524.151C423.766 523.341 424.156 522.61 424.671 521.959C425.18 521.308 425.802 520.763 426.536 520.325C427.264 519.887 428.095 519.585 429.03 519.42ZM441.53 515.862L423.348 515.862L423.348 504.889L425.302 504.889L425.302 513.66L431.445 513.66L431.445 505.457L433.398 505.457L433.398 513.66L439.577 513.66L439.577 504.747L441.53 504.747L441.53 515.862Z" fill="#FFE500"/>
<path d="M96.3232 562.493L78.1414 562.493L78.1414 551.591L80.0945 551.591L80.0945 560.291L86.238 560.291L86.238 552.407L88.1911 552.407L88.1911 560.291L96.3232 560.291L96.3232 562.493ZM96.3232 549.345L96.3232 551.653L78.1414 544.977L78.1414 542.704L96.3232 536.028L96.3232 538.336L81.0178 543.769L81.0178 543.911L96.3232 549.345ZM89.221 548.492L89.221 539.188L91.1741 539.188L91.1741 548.492L89.221 548.492ZM83.8232 519.42L83.8232 521.621C83.19 521.751 82.6336 521.979 82.1542 522.305C81.6748 522.624 81.2723 523.015 80.9468 523.477C80.6154 523.932 80.3668 524.439 80.2011 524.995C80.0354 525.551 79.9525 526.131 79.9525 526.735C79.9525 527.836 80.2307 528.833 80.787 529.727C81.3434 530.615 82.1631 531.322 83.2462 531.849C84.3293 532.369 85.658 532.63 87.2323 532.63C88.8067 532.63 90.1354 532.369 91.2185 531.849C92.3016 531.322 93.1213 530.615 93.6776 529.727C94.234 528.833 94.5122 527.836 94.5122 526.735C94.5122 526.131 94.4293 525.551 94.2636 524.995C94.0979 524.439 93.8522 523.932 93.5267 523.477C93.1953 523.015 92.7899 522.624 92.3105 522.305C91.8251 521.979 91.2688 521.751 90.6414 521.621L90.6414 519.42C91.5706 519.585 92.4022 519.887 93.1361 520.325C93.87 520.763 94.4944 521.308 95.0093 521.959C95.5183 522.61 95.906 523.341 96.1723 524.151C96.4387 524.956 96.5718 525.818 96.5718 526.735C96.5718 528.286 96.193 529.665 95.4355 530.872C94.6779 532.079 93.6007 533.029 92.2039 533.722C90.8071 534.414 89.1499 534.76 87.2323 534.76C85.3147 534.76 83.6575 534.414 82.2607 533.722C80.864 533.029 79.7868 532.079 79.0292 530.872C78.2716 529.665 77.8928 528.286 77.8928 526.735C77.8928 525.818 78.026 524.956 78.2923 524.151C78.5587 523.341 78.9493 522.61 79.4642 521.959C79.9732 521.308 80.5947 520.763 81.3286 520.325C82.0565 519.887 82.8881 519.585 83.8232 519.42ZM96.3232 515.862L78.1414 515.862L78.1414 504.889L80.0945 504.889L80.0945 513.66L86.238 513.66L86.238 505.457L88.1911 505.457L88.1911 513.66L94.3701 513.66L94.3701 504.747L96.3232 504.747L96.3232 515.862Z" fill="#FFE500"/>
<path d="M774.548 562.493L756.366 562.493L756.366 551.591L758.319 551.591L758.319 560.291L764.463 560.291L764.463 552.407L766.416 552.407L766.416 560.291L774.548 560.291L774.548 562.493ZM774.548 549.345L774.548 551.653L756.366 544.977L756.366 542.704L774.548 536.028L774.548 538.336L759.242 543.769L759.242 543.911L774.548 549.345ZM767.446 548.492L767.446 539.188L769.399 539.188L769.399 548.492L767.446 548.492ZM762.048 519.42L762.048 521.621C761.415 521.751 760.858 521.979 760.379 522.305C759.899 522.624 759.497 523.015 759.171 523.477C758.84 523.932 758.591 524.439 758.426 524.995C758.26 525.551 758.177 526.131 758.177 526.735C758.177 527.836 758.455 528.833 759.012 529.727C759.568 530.615 760.388 531.322 761.471 531.849C762.554 532.369 763.883 532.63 765.457 532.63C767.031 532.63 768.36 532.369 769.443 531.849C770.526 531.322 771.346 530.615 771.902 529.727C772.459 528.833 772.737 527.836 772.737 526.735C772.737 526.131 772.654 525.551 772.488 524.995C772.322 524.439 772.077 523.932 771.751 523.477C771.42 523.015 771.014 522.624 770.535 522.305C770.05 521.979 769.493 521.751 768.866 521.621L768.866 519.42C769.795 519.585 770.627 519.887 771.361 520.325C772.095 520.763 772.719 521.308 773.234 521.959C773.743 522.61 774.131 523.341 774.397 524.151C774.663 524.956 774.796 525.818 774.796 526.735C774.796 528.286 774.418 529.665 773.66 530.872C772.902 532.079 771.825 533.029 770.429 533.722C769.032 534.414 767.375 534.76 765.457 534.76C763.539 534.76 761.882 534.414 760.485 533.722C759.089 533.029 758.011 532.079 757.254 530.872C756.496 529.665 756.117 528.286 756.117 526.735C756.117 525.818 756.251 524.956 756.517 524.151C756.783 523.341 757.174 522.61 757.689 521.959C758.198 521.308 758.819 520.763 759.553 520.325C760.281 519.887 761.113 519.585 762.048 519.42ZM774.548 515.862L756.366 515.862L756.366 504.889L758.319 504.889L758.319 513.66L764.463 513.66L764.463 505.457L766.416 505.457L766.416 513.66L772.595 513.66L772.595 504.747L774.548 504.747L774.548 515.862Z" fill="#FFE500"/>
</svg>
