<svg width="77" height="78" viewBox="0 0 77 78" fill="none" xmlns="http://www.w3.org/2000/svg">
<circle cx="38.0833" cy="38.0833" r="38.0833" transform="matrix(4.37114e-08 1 1 -4.37114e-08 0.785645 0.916748)" fill="#FFE500"/>
<path fill-rule="evenodd" clip-rule="evenodd" d="M34.5824 21.9548C33.4368 21.9548 32.3269 22.3533 31.4429 23.082L30.0691 24.2145C29.1851 24.9432 28.0752 25.3417 26.9296 25.3417H21.4782C18.7523 25.3417 16.5425 27.5515 16.5425 30.2774V51.1094C16.5425 53.8353 18.7523 56.0451 21.4782 56.0451H56.2597C58.9857 56.0451 61.1954 53.8353 61.1954 51.1094V30.797C61.1954 28.0711 58.9856 25.8613 56.2597 25.8613H51.1404C49.8314 25.8613 48.576 25.3413 47.6504 24.4157L46.6351 23.4005C45.7095 22.4748 44.4541 21.9548 43.1451 21.9548H34.5824ZM46.8798 40.7632C46.8798 45.2006 43.2827 48.7977 38.8454 48.7977C34.4081 48.7977 30.8109 45.2006 30.8109 40.7632C30.8109 36.3259 34.4081 32.7288 38.8454 32.7288C43.2827 32.7288 46.8798 36.3259 46.8798 40.7632ZM48.8541 40.7632C48.8541 46.2909 44.373 50.772 38.8454 50.772C33.3177 50.772 28.8366 46.2909 28.8366 40.7632C28.8366 35.2356 33.3177 30.7545 38.8454 30.7545C44.373 30.7545 48.8541 35.2356 48.8541 40.7632Z" fill="#444444"/>
</svg>
