<svg width="1205" height="862" viewBox="0 0 1205 862" fill="none" xmlns="http://www.w3.org/2000/svg">
<path d="M1160.45 593.018L1142.26 593.018L1142.26 586.661C1142.26 585.395 1142.48 584.35 1142.92 583.528C1143.35 582.705 1143.94 582.092 1144.67 581.69C1145.4 581.287 1146.21 581.086 1147.09 581.086C1147.88 581.086 1148.52 581.225 1149.03 581.503C1149.54 581.776 1149.94 582.137 1150.24 582.587C1150.53 583.03 1150.75 583.513 1150.89 584.034L1151.07 584.034C1151.11 583.477 1151.3 582.918 1151.66 582.356C1152.01 581.793 1152.52 581.323 1153.18 580.944C1153.85 580.565 1154.66 580.376 1155.62 580.376C1156.53 580.376 1157.35 580.583 1158.08 580.997C1158.8 581.412 1159.38 582.066 1159.81 582.959C1160.23 583.853 1160.45 585.016 1160.45 586.448L1160.45 593.018ZM1158.49 590.816L1158.49 586.448C1158.49 585.01 1158.21 583.989 1157.66 583.386C1157.1 582.776 1156.42 582.471 1155.62 582.471C1155 582.471 1154.43 582.628 1153.91 582.942C1153.39 583.255 1152.97 583.702 1152.65 584.282C1152.33 584.862 1152.17 585.549 1152.17 586.342L1152.17 590.816L1158.49 590.816ZM1150.25 590.816L1150.25 586.733C1150.25 586.07 1150.12 585.472 1149.86 584.939C1149.6 584.401 1149.24 583.974 1148.76 583.661C1148.29 583.341 1147.73 583.181 1147.09 583.181C1146.3 583.181 1145.62 583.46 1145.06 584.016C1144.5 584.572 1144.22 585.454 1144.22 586.661L1144.22 590.816L1150.25 590.816ZM1151.36 561.417C1153.27 561.417 1154.93 561.764 1156.33 562.456C1157.72 563.149 1158.8 564.098 1159.56 565.306C1160.32 566.513 1160.69 567.892 1160.69 569.443C1160.69 570.994 1160.32 572.373 1159.56 573.58C1158.8 574.787 1157.72 575.737 1156.33 576.43C1154.93 577.122 1153.27 577.468 1151.36 577.468C1149.44 577.468 1147.78 577.122 1146.38 576.43C1144.99 575.737 1143.91 574.787 1143.15 573.58C1142.39 572.373 1142.02 570.994 1142.02 569.443C1142.02 567.892 1142.39 566.513 1143.15 565.306C1143.91 564.098 1144.99 563.149 1146.38 562.456C1147.78 561.764 1149.44 561.417 1151.36 561.417ZM1151.36 563.548C1149.78 563.548 1148.45 563.811 1147.37 564.338C1146.29 564.859 1145.47 565.566 1144.91 566.46C1144.35 567.348 1144.08 568.342 1144.08 569.443C1144.08 570.544 1144.35 571.541 1144.91 572.435C1145.47 573.323 1146.29 574.03 1147.37 574.557C1148.45 575.077 1149.78 575.338 1151.36 575.338C1152.93 575.338 1154.26 575.077 1155.34 574.557C1156.42 574.03 1157.24 573.323 1157.8 572.435C1158.36 571.541 1158.64 570.544 1158.64 569.443C1158.64 568.342 1158.36 567.348 1157.8 566.46C1157.24 565.566 1156.42 564.859 1155.34 564.338C1154.26 563.811 1152.93 563.548 1151.36 563.548ZM1160.45 552.104L1160.45 557.715L1142.26 557.715L1142.26 551.856C1142.26 550.092 1142.63 548.583 1143.36 547.328C1144.08 546.073 1145.12 545.112 1146.47 544.443C1147.82 543.774 1149.44 543.44 1151.32 543.44C1153.21 543.44 1154.84 543.777 1156.21 544.452C1157.57 545.127 1158.62 546.109 1159.35 547.399C1160.08 548.689 1160.45 550.258 1160.45 552.104ZM1158.49 555.514L1158.49 552.247C1158.49 550.743 1158.2 549.497 1157.62 548.509C1157.04 547.521 1156.22 546.784 1155.15 546.298C1154.07 545.813 1152.8 545.57 1151.32 545.57C1149.85 545.57 1148.59 545.81 1147.53 546.29C1146.46 546.769 1145.65 547.485 1145.08 548.438C1144.5 549.391 1144.22 550.578 1144.22 551.998L1144.22 555.514L1158.49 555.514ZM1142.26 542.164L1142.26 539.642L1150.75 534.6L1150.75 534.387L1142.26 529.344L1142.26 526.823L1152.95 533.392L1160.45 533.392L1160.45 535.594L1152.95 535.594L1142.26 542.164Z" fill="white"/>
<path d="M1127.81 0.869141C1127.81 287.869 1127.81 861.869 1127.81 861.869" stroke="white" stroke-width="0.846296"/>
<path d="M250.629 0.869141C250.629 287.869 250.629 861.869 250.629 861.869" stroke="white" stroke-width="0.846296"/>
<path d="M0.80957 516.481C402.025 516.481 1204.46 516.481 1204.46 516.481" stroke="white"/>
<rect x="452.354" y="214.587" width="261.207" height="261.207" stroke="#FFE500"/>
<path d="M440.238 474.092L422.056 474.092L422.056 463.19L424.01 463.19L424.01 471.891L430.153 471.891L430.153 464.007L432.106 464.007L432.106 471.891L440.238 471.891L440.238 474.092ZM440.238 460.944L440.238 463.252L422.056 456.576L422.056 454.304L440.238 447.627L440.238 449.936L424.933 455.369L424.933 455.511L440.238 460.944ZM433.136 460.092L433.136 450.788L435.089 450.788L435.089 460.092L433.136 460.092ZM427.738 431.019L427.738 433.221C427.105 433.351 426.549 433.579 426.069 433.904C425.59 434.224 425.187 434.615 424.862 435.076C424.53 435.532 424.282 436.038 424.116 436.594C423.95 437.151 423.868 437.731 423.868 438.335C423.868 439.435 424.146 440.433 424.702 441.326C425.258 442.214 426.078 442.921 427.161 443.448C428.244 443.969 429.573 444.229 431.147 444.229C432.722 444.229 434.05 443.969 435.134 443.448C436.217 442.921 437.036 442.214 437.593 441.326C438.149 440.433 438.427 439.435 438.427 438.335C438.427 437.731 438.344 437.151 438.179 436.594C438.013 436.038 437.767 435.532 437.442 435.076C437.11 434.615 436.705 434.224 436.225 433.904C435.74 433.579 435.184 433.351 434.556 433.221L434.556 431.019C435.486 431.185 436.317 431.487 437.051 431.925C437.785 432.363 438.409 432.907 438.924 433.558C439.433 434.209 439.821 434.94 440.087 435.751C440.354 436.556 440.487 437.417 440.487 438.335C440.487 439.885 440.108 441.264 439.35 442.472C438.593 443.679 437.516 444.629 436.119 445.321C434.722 446.014 433.065 446.36 431.147 446.36C429.23 446.36 427.573 446.014 426.176 445.321C424.779 444.629 423.702 443.679 422.944 442.472C422.187 441.264 421.808 439.885 421.808 438.335C421.808 437.417 421.941 436.556 422.207 435.751C422.474 434.94 422.864 434.209 423.379 433.558C423.888 432.907 424.51 432.363 425.244 431.925C425.972 431.487 426.803 431.185 427.738 431.019ZM440.238 427.461L422.056 427.461L422.056 416.488L424.01 416.488L424.01 425.26L430.153 425.26L430.153 417.057L432.106 417.057L432.106 425.26L438.285 425.26L438.285 416.346L440.238 416.346L440.238 427.461Z" fill="#FFE500"/>
</svg>
