<svg width="1205" height="862" viewBox="0 0 1205 862" fill="none" xmlns="http://www.w3.org/2000/svg">
<rect x="471.846" y="138.367" width="355.651" height="396.406" stroke="#FFE500" stroke-width="0.846296"/>
<path d="M870.255 205.61L852.073 205.61L852.073 194.708L854.026 194.708L854.026 203.408L860.17 203.408L860.17 195.525L862.123 195.525L862.123 203.408L870.255 203.408L870.255 205.61ZM870.255 192.462L870.255 194.77L852.073 188.094L852.073 185.821L870.255 179.145L870.255 181.453L854.949 186.886L854.949 187.028L870.255 192.462ZM863.153 191.609L863.153 182.305L865.106 182.305L865.106 191.609L863.153 191.609ZM857.755 162.537L857.755 164.738C857.122 164.869 856.565 165.097 856.086 165.422C855.606 165.742 855.204 166.132 854.878 166.594C854.547 167.05 854.298 167.556 854.133 168.112C853.967 168.668 853.884 169.248 853.884 169.852C853.884 170.953 854.162 171.95 854.719 172.844C855.275 173.732 856.095 174.439 857.178 174.966C858.261 175.487 859.59 175.747 861.164 175.747C862.738 175.747 864.067 175.487 865.15 174.966C866.233 174.439 867.053 173.732 867.609 172.844C868.166 171.95 868.444 170.953 868.444 169.852C868.444 169.248 868.361 168.668 868.195 168.112C868.03 167.556 867.784 167.05 867.458 166.594C867.127 166.132 866.722 165.742 866.242 165.422C865.757 165.097 865.2 164.869 864.573 164.738L864.573 162.537C865.502 162.702 866.334 163.004 867.068 163.442C867.802 163.88 868.426 164.425 868.941 165.076C869.45 165.727 869.838 166.458 870.104 167.269C870.37 168.074 870.503 168.935 870.503 169.852C870.503 171.403 870.125 172.782 869.367 173.989C868.61 175.197 867.532 176.146 866.136 176.839C864.739 177.531 863.082 177.878 861.164 177.878C859.246 177.878 857.589 177.531 856.192 176.839C854.796 176.146 853.718 175.197 852.961 173.989C852.203 172.782 851.824 171.403 851.824 169.852C851.824 168.935 851.958 168.074 852.224 167.269C852.49 166.458 852.881 165.727 853.396 165.076C853.905 164.425 854.526 163.88 855.26 163.442C855.988 163.004 856.82 162.702 857.755 162.537ZM870.255 158.979L852.073 158.979L852.073 148.006L854.026 148.006L854.026 156.777L860.17 156.777L860.17 148.574L862.123 148.574L862.123 156.777L868.302 156.777L868.302 147.864L870.255 147.864L870.255 158.979Z" fill="#FFE500"/>
<path d="M1160.45 572.365L1142.26 572.365L1142.26 566.008C1142.26 564.742 1142.48 563.697 1142.92 562.874C1143.35 562.052 1143.94 561.439 1144.67 561.037C1145.4 560.634 1146.21 560.433 1147.09 560.433C1147.87 560.433 1148.52 560.572 1149.03 560.85C1149.54 561.122 1149.94 561.483 1150.24 561.933C1150.53 562.377 1150.75 562.859 1150.89 563.38L1151.07 563.38C1151.11 562.824 1151.3 562.265 1151.66 561.702C1152.01 561.14 1152.52 560.67 1153.18 560.291C1153.85 559.912 1154.66 559.723 1155.62 559.723C1156.53 559.723 1157.35 559.93 1158.07 560.344C1158.8 560.758 1159.38 561.412 1159.81 562.306C1160.23 563.2 1160.45 564.363 1160.45 565.795L1160.45 572.365ZM1158.49 570.163L1158.49 565.795C1158.49 564.357 1158.21 563.336 1157.66 562.732C1157.1 562.123 1156.41 561.818 1155.62 561.818C1155 561.818 1154.43 561.975 1153.91 562.288C1153.38 562.602 1152.96 563.049 1152.65 563.629C1152.33 564.209 1152.17 564.895 1152.17 565.689L1152.17 570.163L1158.49 570.163ZM1150.25 570.163L1150.25 566.079C1150.25 565.416 1150.12 564.819 1149.86 564.286C1149.6 563.747 1149.24 563.321 1148.76 563.007C1148.29 562.688 1147.73 562.528 1147.09 562.528C1146.29 562.528 1145.62 562.806 1145.06 563.363C1144.5 563.919 1144.22 564.801 1144.22 566.008L1144.22 570.163L1150.25 570.163ZM1151.35 540.764C1153.27 540.764 1154.93 541.11 1156.33 541.803C1157.72 542.495 1158.8 543.445 1159.56 544.653C1160.32 545.86 1160.69 547.239 1160.69 548.79C1160.69 550.34 1160.32 551.719 1159.56 552.927C1158.8 554.134 1157.72 555.084 1156.33 555.776C1154.93 556.469 1153.27 556.815 1151.35 556.815C1149.44 556.815 1147.78 556.469 1146.38 555.776C1144.99 555.084 1143.91 554.134 1143.15 552.927C1142.39 551.719 1142.01 550.34 1142.01 548.79C1142.01 547.239 1142.39 545.86 1143.15 544.653C1143.91 543.445 1144.99 542.495 1146.38 541.803C1147.78 541.11 1149.44 540.764 1151.35 540.764ZM1151.35 542.895C1149.78 542.895 1148.45 543.158 1147.37 543.685C1146.29 544.206 1145.47 544.913 1144.91 545.807C1144.35 546.694 1144.07 547.689 1144.07 548.79C1144.07 549.89 1144.35 550.888 1144.91 551.781C1145.47 552.669 1146.29 553.376 1147.37 553.903C1148.45 554.424 1149.78 554.684 1151.35 554.684C1152.93 554.684 1154.26 554.424 1155.34 553.903C1156.42 553.376 1157.24 552.669 1157.8 551.781C1158.36 550.888 1158.63 549.89 1158.63 548.79C1158.63 547.689 1158.36 546.694 1157.8 545.807C1157.24 544.913 1156.42 544.206 1155.34 543.685C1154.26 543.158 1152.93 542.895 1151.35 542.895ZM1160.45 531.451L1160.45 537.062L1142.26 537.062L1142.26 531.203C1142.26 529.439 1142.63 527.93 1143.36 526.675C1144.08 525.42 1145.12 524.458 1146.47 523.79C1147.82 523.121 1149.44 522.786 1151.32 522.786C1153.21 522.786 1154.84 523.124 1156.21 523.798C1157.57 524.473 1158.62 525.456 1159.35 526.746C1160.08 528.036 1160.45 529.605 1160.45 531.451ZM1158.49 534.86L1158.49 531.593C1158.49 530.09 1158.2 528.844 1157.62 527.856C1157.04 526.867 1156.22 526.13 1155.15 525.645C1154.07 525.16 1152.8 524.917 1151.32 524.917C1149.85 524.917 1148.59 525.157 1147.53 525.636C1146.46 526.116 1145.65 526.832 1145.08 527.785C1144.5 528.738 1144.22 529.924 1144.22 531.345L1144.22 534.86L1158.49 534.86ZM1142.26 521.51L1142.26 518.989L1150.75 513.946L1150.75 513.733L1142.26 508.691L1142.26 506.169L1152.95 512.739L1160.45 512.739L1160.45 514.941L1152.95 514.941L1142.26 521.51Z" fill="white"/>
<path d="M1127.8 0.21582C1127.8 287.216 1127.8 861.216 1127.8 861.216" stroke="white" stroke-width="0.846296"/>
<path d="M250.628 0.21582C250.628 287.216 250.628 861.216 250.628 861.216" stroke="white" stroke-width="0.846296"/>
<path d="M0.808594 495.827C402.024 495.827 1204.46 495.827 1204.46 495.827" stroke="white"/>
</svg>
