<svg width="1205" height="862" viewBox="0 0 1205 862" fill="none" xmlns="http://www.w3.org/2000/svg">
<rect x="468.642" y="164.144" width="305.945" height="305.945" stroke="#FFE500" stroke-width="0.846296"/>
<path d="M813.422 472.178L795.24 472.178L795.24 461.276L797.193 461.276L797.193 469.976L803.337 469.976L803.337 462.093L805.29 462.093L805.29 469.976L813.422 469.976L813.422 472.178ZM813.422 459.03L813.422 461.338L795.24 454.662L795.24 452.389L813.422 445.713L813.422 448.022L798.116 453.455L798.116 453.597L813.422 459.03ZM806.32 458.178L806.32 448.874L808.273 448.874L808.273 458.178L806.32 458.178ZM800.922 429.105L800.922 431.307C800.289 431.437 799.732 431.665 799.253 431.99C798.773 432.31 798.371 432.701 798.045 433.162C797.714 433.618 797.465 434.124 797.3 434.68C797.134 435.237 797.051 435.817 797.051 436.42C797.051 437.521 797.329 438.519 797.886 439.412C798.442 440.3 799.262 441.007 800.345 441.534C801.428 442.055 802.757 442.315 804.331 442.315C805.905 442.315 807.234 442.055 808.317 441.534C809.4 441.007 810.22 440.3 810.776 439.412C811.333 438.519 811.611 437.521 811.611 436.42C811.611 435.817 811.528 435.237 811.362 434.68C811.196 434.124 810.951 433.618 810.625 433.162C810.294 432.701 809.888 432.31 809.409 431.99C808.924 431.665 808.367 431.437 807.74 431.307L807.74 429.105C808.669 429.271 809.501 429.573 810.235 430.011C810.969 430.449 811.593 430.993 812.108 431.644C812.617 432.295 813.005 433.026 813.271 433.837C813.537 434.642 813.67 435.503 813.67 436.42C813.67 437.971 813.292 439.35 812.534 440.558C811.777 441.765 810.699 442.715 809.303 443.407C807.906 444.1 806.249 444.446 804.331 444.446C802.413 444.446 800.756 444.1 799.359 443.407C797.963 442.715 796.885 441.765 796.128 440.558C795.37 439.35 794.991 437.971 794.991 436.42C794.991 435.503 795.125 434.642 795.391 433.837C795.657 433.026 796.048 432.295 796.563 431.644C797.072 430.993 797.693 430.449 798.427 430.011C799.155 429.573 799.987 429.271 800.922 429.105ZM813.422 425.547L795.24 425.547L795.24 414.574L797.193 414.574L797.193 423.346L803.337 423.346L803.337 415.142L805.29 415.142L805.29 423.346L811.469 423.346L811.469 414.432L813.422 414.432L813.422 425.547Z" fill="#FFE500"/>
<path d="M950.458 603.095L932.276 603.095L932.276 596.739C932.276 595.472 932.495 594.427 932.933 593.605C933.365 592.782 933.948 592.17 934.682 591.767C935.41 591.365 936.218 591.163 937.106 591.163C937.887 591.163 938.532 591.302 939.041 591.581C939.55 591.853 939.953 592.214 940.248 592.664C940.544 593.108 940.763 593.59 940.905 594.111L941.083 594.111C941.119 593.554 941.314 592.995 941.669 592.433C942.024 591.871 942.533 591.4 943.196 591.021C943.859 590.643 944.67 590.453 945.628 590.453C946.54 590.453 947.36 590.66 948.088 591.075C948.816 591.489 949.393 592.143 949.819 593.037C950.245 593.93 950.458 595.093 950.458 596.526L950.458 603.095ZM948.505 600.893L948.505 596.526C948.505 595.087 948.227 594.066 947.67 593.463C947.108 592.853 946.427 592.548 945.628 592.548C945.013 592.548 944.445 592.705 943.924 593.019C943.397 593.333 942.977 593.779 942.663 594.359C942.344 594.939 942.184 595.626 942.184 596.419L942.184 600.893L948.505 600.893ZM940.266 600.893L940.266 596.81C940.266 596.147 940.136 595.549 939.876 595.016C939.615 594.478 939.248 594.052 938.775 593.738C938.301 593.418 937.745 593.259 937.106 593.259C936.307 593.259 935.629 593.537 935.073 594.093C934.51 594.649 934.229 595.531 934.229 596.739L934.229 600.893L940.266 600.893ZM941.367 571.494C943.285 571.494 944.942 571.841 946.339 572.533C947.735 573.226 948.813 574.176 949.57 575.383C950.328 576.59 950.707 577.969 950.707 579.52C950.707 581.071 950.328 582.45 949.57 583.657C948.813 584.865 947.735 585.814 946.339 586.507C944.942 587.199 943.285 587.546 941.367 587.546C939.449 587.546 937.792 587.199 936.396 586.507C934.999 585.814 933.922 584.865 933.164 583.657C932.406 582.45 932.028 581.071 932.028 579.52C932.028 577.969 932.406 576.59 933.164 575.383C933.922 574.176 934.999 573.226 936.396 572.533C937.792 571.841 939.449 571.494 941.367 571.494ZM941.367 573.625C939.793 573.625 938.464 573.889 937.381 574.415C936.298 574.936 935.478 575.643 934.922 576.537C934.365 577.425 934.087 578.419 934.087 579.52C934.087 580.621 934.365 581.618 934.922 582.512C935.478 583.4 936.298 584.107 937.381 584.634C938.464 585.155 939.793 585.415 941.367 585.415C942.941 585.415 944.27 585.155 945.353 584.634C946.436 584.107 947.256 583.4 947.812 582.512C948.369 581.618 948.647 580.621 948.647 579.52C948.647 578.419 948.369 577.425 947.812 576.537C947.256 575.643 946.436 574.936 945.353 574.415C944.27 573.889 942.941 573.625 941.367 573.625ZM950.458 562.182L950.458 567.792L932.276 567.792L932.276 561.933C932.276 560.169 932.64 558.66 933.368 557.405C934.09 556.151 935.129 555.189 936.484 554.52C937.834 553.851 939.449 553.517 941.332 553.517C943.226 553.517 944.856 553.854 946.223 554.529C947.585 555.204 948.632 556.186 949.366 557.476C950.094 558.767 950.458 560.335 950.458 562.182ZM948.505 565.591L948.505 562.324C948.505 560.82 948.215 559.575 947.635 558.586C947.055 557.598 946.229 556.861 945.158 556.376C944.087 555.89 942.811 555.648 941.332 555.648C939.864 555.648 938.6 555.887 937.541 556.367C936.475 556.846 935.659 557.562 935.09 558.515C934.516 559.468 934.229 560.655 934.229 562.075L934.229 565.591L948.505 565.591ZM932.276 552.241L932.276 549.719L940.763 544.677L940.763 544.464L932.276 539.421L932.276 536.9L942.965 543.469L950.458 543.469L950.458 545.671L942.965 545.671L932.276 552.241Z" fill="white"/>
<path d="M917.817 0.946289C917.817 287.946 917.817 861.946 917.817 861.946" stroke="white" stroke-width="0.846296"/>
<path d="M250.629 0.946289C250.629 287.946 250.629 861.946 250.629 861.946" stroke="white" stroke-width="0.846296"/>
<path d="M0.80957 524.558C402.025 524.557 1204.46 524.557 1204.46 524.557" stroke="white"/>
</svg>
