<svg width="1205" height="860" viewBox="0 0 1205 860" fill="none" xmlns="http://www.w3.org/2000/svg">
<rect x="484.704" y="34.2773" width="341.503" height="341.503" stroke="#FFE500"/>
<rect x="312.265" y="386.78" width="608.155" height="472.663" stroke="#FFE500"/>
<path d="M468.407 94.0893L450.225 94.0893L450.225 83.1873L452.179 83.1873L452.179 91.8876L458.322 91.8876L458.322 84.0041L460.275 84.0041L460.275 91.8876L468.407 91.8876L468.407 94.0893ZM468.407 80.9412L468.407 83.2495L450.225 76.5733L450.225 74.3006L468.407 67.6245L468.407 69.9327L453.102 75.3659L453.102 75.508L468.407 80.9412ZM461.305 80.089L461.305 70.785L463.258 70.785L463.258 80.089L461.305 80.089ZM455.907 51.0162L455.907 53.2179C455.274 53.3482 454.718 53.576 454.238 53.9015C453.759 54.2211 453.356 54.6118 453.031 55.0734C452.699 55.5291 452.451 56.0352 452.285 56.5915C452.119 57.1479 452.036 57.7279 452.036 58.3316C452.036 59.4324 452.315 60.4297 452.871 61.3234C453.427 62.2112 454.247 62.9185 455.33 63.4452C456.413 63.9661 457.742 64.2265 459.316 64.2265C460.891 64.2265 462.219 63.9661 463.302 63.4452C464.386 62.9185 465.205 62.2112 465.762 61.3234C466.318 60.4297 466.596 59.4324 466.596 58.3316C466.596 57.7279 466.513 57.1479 466.348 56.5915C466.182 56.0352 465.936 55.5291 465.611 55.0734C465.279 54.6118 464.874 54.2211 464.394 53.9015C463.909 53.576 463.353 53.3482 462.725 53.2179L462.725 51.0162C463.655 51.182 464.486 51.4838 465.22 51.9218C465.954 52.3598 466.578 52.9043 467.093 53.5553C467.602 54.2063 467.99 54.9373 468.256 55.7481C468.523 56.5531 468.656 57.4142 468.656 58.3316C468.656 59.8822 468.277 61.2613 467.519 62.4687C466.762 63.676 465.685 64.626 464.288 65.3184C462.891 66.0109 461.234 66.3572 459.316 66.3572C457.399 66.3572 455.742 66.0109 454.345 65.3184C452.948 64.626 451.871 63.676 451.113 62.4687C450.356 61.2613 449.977 59.8822 449.977 58.3316C449.977 57.4142 450.11 56.5531 450.376 55.7481C450.643 54.9373 451.033 54.2063 451.548 53.5553C452.057 52.9043 452.679 52.3598 453.413 51.9218C454.141 51.4838 454.972 51.182 455.907 51.0162ZM468.407 47.4585L450.225 47.4585L450.225 36.4854L452.179 36.4854L452.179 45.2567L458.322 45.2567L458.322 37.0536L460.275 37.0536L460.275 45.2567L466.454 45.2567L466.454 36.3434L468.407 36.3434L468.407 47.4585Z" fill="#FFE500"/>
<path d="M290.259 483.079L272.077 483.079L272.077 480.877L288.306 480.877L288.306 472.425L290.259 472.425L290.259 483.079ZM290.259 467.123L290.259 469.431L272.077 462.755L272.077 460.482L290.259 453.806L290.259 456.114L274.953 461.548L274.953 461.69L290.259 467.123ZM283.157 466.271L283.157 456.967L285.11 456.967L285.11 466.271L283.157 466.271ZM290.259 450.974L272.077 450.974L272.077 444.831C272.077 443.404 272.334 442.238 272.849 441.333C273.358 440.421 274.048 439.747 274.918 439.309C275.788 438.871 276.759 438.652 277.83 438.652C278.901 438.652 279.875 438.871 280.751 439.309C281.627 439.741 282.325 440.409 282.846 441.315C283.361 442.221 283.618 443.381 283.618 444.795L283.618 449.199L281.665 449.199L281.665 444.866C281.665 443.89 281.496 443.105 281.159 442.513C280.822 441.922 280.366 441.493 279.792 441.226C279.212 440.954 278.558 440.818 277.83 440.818C277.102 440.818 276.451 440.954 275.877 441.226C275.303 441.493 274.853 441.925 274.527 442.522C274.196 443.12 274.03 443.913 274.03 444.902L274.03 448.772L290.259 448.772L290.259 450.974ZM274.03 436.099L272.077 436.099L272.077 422.463L274.03 422.463L274.03 428.18L290.259 428.18L290.259 430.382L274.03 430.382L274.03 436.099ZM281.168 404.481C283.085 404.481 284.743 404.827 286.139 405.52C287.536 406.212 288.613 407.162 289.371 408.369C290.129 409.577 290.507 410.956 290.507 412.506C290.507 414.057 290.129 415.436 289.371 416.643C288.613 417.851 287.536 418.801 286.139 419.493C284.743 420.186 283.085 420.532 281.168 420.532C279.25 420.532 277.593 420.186 276.196 419.493C274.8 418.801 273.722 417.851 272.965 416.643C272.207 415.436 271.828 414.057 271.828 412.506C271.828 410.956 272.207 409.577 272.965 408.369C273.722 407.162 274.8 406.212 276.196 405.52C277.593 404.827 279.25 404.481 281.168 404.481ZM281.168 406.612C279.594 406.612 278.265 406.875 277.182 407.402C276.099 407.922 275.279 408.63 274.723 409.523C274.166 410.411 273.888 411.406 273.888 412.506C273.888 413.607 274.166 414.605 274.723 415.498C275.279 416.386 276.099 417.093 277.182 417.62C278.265 418.141 279.594 418.401 281.168 418.401C282.742 418.401 284.071 418.141 285.154 417.62C286.237 417.093 287.057 416.386 287.613 415.498C288.17 414.605 288.448 413.607 288.448 412.506C288.448 411.406 288.17 410.411 287.613 409.523C287.057 408.63 286.237 407.922 285.154 407.402C284.071 406.875 282.742 406.612 281.168 406.612ZM290.259 400.779L272.077 400.779L272.077 394.635C272.077 393.209 272.334 392.043 272.849 391.137C273.358 390.226 274.048 389.551 274.918 389.113C275.788 388.675 276.759 388.456 277.83 388.456C278.901 388.456 279.875 388.675 280.751 389.113C281.627 389.545 282.325 390.214 282.846 391.12C283.361 392.025 283.618 393.185 283.618 394.6L283.618 399.003L281.665 399.003L281.665 394.671C281.665 393.694 281.496 392.91 281.159 392.318C280.822 391.726 280.366 391.297 279.792 391.031C279.212 390.759 278.558 390.623 277.83 390.623C277.102 390.623 276.451 390.759 275.877 391.031C275.303 391.297 274.853 391.729 274.527 392.327C274.196 392.925 274.03 393.718 274.03 394.706L274.03 398.577L290.259 398.577L290.259 400.779Z" fill="#FFE500"/>
</svg>
